<svg xmlns="http://www.w3.org/2000/svg" width="30" height="30" viewBox="0 0 30 30" fill="none">
  <g clip-path="url(#clip0_160_442)">
    <path fill="none" 
          stroke="#D9E530" 
          stroke-width="1" 
          d="M15 0.593262C14.5748 0.593262 14.1585 0.714907 13.8002 0.94384C13.4464 1.16985 13.1638 1.4911 12.9847 1.8705L9.58277 8.73855C9.57609 8.75205 9.56968 8.76568 9.56357 8.77946L9.55663 8.78805L9.54634 8.79206C9.53329 8.79349 9.52027 8.79519 9.50728 8.79712L2.01675 9.90682C1.60274 9.94708 1.20794 10.1024 0.877267 10.3557C0.535112 10.6178 0.276294 10.9735 0.132165 11.3797C-0.0119643 11.7858 -0.035221 12.2251 0.0652128 12.6443C0.165258 13.0617 0.383762 13.4414 0.694404 13.7377L6.17749 19.028L6.18999 19.0399C6.19781 19.0472 6.2037 19.0563 6.20709 19.0665C6.21047 19.0767 6.21127 19.0875 6.20938 19.0981L4.9016 26.7516C4.82981 27.1661 4.87526 27.5942 5.03342 27.9838C5.1918 28.3742 5.45657 28.7121 5.79757 28.9594C6.13858 29.2065 6.54212 29.3531 6.96229 29.3822C7.38163 29.4114 7.80073 29.3224 8.17209 29.1257L8.17434 29.1244L14.9232 25.5576C14.9474 25.5471 14.9736 25.5416 15 25.5416C15.0265 25.5416 15.0527 25.5471 15.0769 25.5576L21.8256 29.1244C22.1972 29.3218 22.6181 29.4116 23.0376 29.3822C23.4579 29.3531 23.8614 29.2065 24.2025 28.9594C24.5434 28.7121 24.8083 28.3742 24.9666 27.9838C25.1248 27.5942 25.1704 27.1682 25.0989 26.754L25.0984 26.7516L23.7919 19.1051L23.7906 19.0981C23.7887 19.0875 23.7896 19.0767 23.793 19.0665C23.7962 19.0564 23.8022 19.0472 23.8099 19.0399L23.8226 19.028L29.3057 13.7376C29.6162 13.4414 29.8348 13.0617 29.9349 12.6443C30.0351 12.2251 30.012 11.7858 29.8678 11.3797C29.7238 10.9735 29.4649 10.6178 29.1227 10.3557C28.7921 10.1024 28.3974 9.94708 27.9834 9.90682L20.4927 8.79712C20.4798 8.79519 20.4667 8.79349 20.4537 8.79206L20.4434 8.78805L20.4365 8.77946C20.4303 8.76568 20.4239 8.75205 20.4173 8.73855L17.0153 1.87047C16.8362 1.49108 16.5536 1.16984 16.1999 0.94384C15.8415 0.714907 15.4252 0.593262 15 0.593262Z"/>
  </g>
  <defs>
    <clipPath id="clip0_160_442">
      <rect width="30" height="30" fill="white"/>
    </clipPath>
  </defs>
</svg>
