<svg fill="none" height="200" viewBox="0 0 24 24" width="200" xmlns="http://www.w3.org/2000/svg"><g stroke="#FFD700" stroke-linecap="round" stroke-linejoin="round" stroke-width="1.5"><path d="m15.39 5.21 1.4099 2.81999c.19.39.7.76 1.13.84l2.5501.42c1.63.27 2.01 1.45001.84 2.63001l-1.9901 1.99c-.33.33-.5199.98-.4099 1.45l.5699 2.46c.45 1.94-.5899 2.7-2.2999 1.68l-2.3901-1.42c-.43-.26-1.1499-.26-1.5799 0l-2.3901 1.42c-1.70996 1.01-2.74995.26-2.29995-1.68l.57001-2.46c.11-.46-.08001-1.11-.41001-1.45l-1.98999-1.99c-1.17-1.17-.79-2.35001.84-2.63001l2.54994-.42c.43-.07.9401-.45 1.1301-.84l1.41-2.81999c.75-1.53 1.99-1.53 2.76 0z"/><path d="m8 5h-6"/><path d="m5 19h-3"/><path d="m3 12h-1"/></g></svg>